<svg width="720" height="682" viewBox="0 0 720 682" fill="none" xmlns="http://www.w3.org/2000/svg">
<g style="mix-blend-mode:hard-light">
<path d="M539.5 340.334C539.5 465.41 418.925 566.945 270 566.945C121.075 566.945 0.5 465.41 0.5 340.334C0.5 215.258 121.075 113.723 270 113.723C418.925 113.723 539.5 215.258 539.5 340.334Z" fill="#FFD166"/>
<path d="M539.5 340.334C539.5 465.41 418.925 566.945 270 566.945C121.075 566.945 0.5 465.41 0.5 340.334C0.5 215.258 121.075 113.723 270 113.723C418.925 113.723 539.5 215.258 539.5 340.334Z" stroke="black"/>
</g>
<g style="mix-blend-mode:hard-light">
<path d="M629.5 454.889C629.5 579.965 508.925 681.5 360 681.5C211.075 681.5 90.5 579.965 90.5 454.889C90.5 329.812 211.075 228.277 360 228.277C508.925 228.277 629.5 329.812 629.5 454.889Z" fill="#06D6A0"/>
<path d="M629.5 454.889C629.5 579.965 508.925 681.5 360 681.5C211.075 681.5 90.5 579.965 90.5 454.889C90.5 329.812 211.075 228.277 360 228.277C508.925 228.277 629.5 329.812 629.5 454.889Z" stroke="black"/>
</g>
<g style="mix-blend-mode:hard-light">
<path d="M719.5 340.334C719.5 465.41 598.925 566.945 450 566.945C301.075 566.945 180.5 465.41 180.5 340.334C180.5 215.258 301.075 113.723 450 113.723C598.925 113.723 719.5 215.258 719.5 340.334Z" fill="#26547C"/>
<path d="M719.5 340.334C719.5 465.41 598.925 566.945 450 566.945C301.075 566.945 180.5 465.41 180.5 340.334C180.5 215.258 301.075 113.723 450 113.723C598.925 113.723 719.5 215.258 719.5 340.334Z" stroke="black"/>
</g>
<g style="mix-blend-mode:hard-light">
<path d="M629.5 227.111C629.5 352.188 508.925 453.723 360 453.723C211.075 453.723 90.5 352.188 90.5 227.111C90.5 102.035 211.075 0.5 360 0.5C508.925 0.5 629.5 102.035 629.5 227.111Z" fill="#EF476F"/>
<path d="M629.5 227.111C629.5 352.188 508.925 453.723 360 453.723C211.075 453.723 90.5 352.188 90.5 227.111C90.5 102.035 211.075 0.5 360 0.5C508.925 0.5 629.5 102.035 629.5 227.111Z" stroke="black"/>
</g>
</svg>
